<mxfile host="app.diagrams.net" agent="Mozilla/5.0 (X11; Linux x86_64) AppleWebKit/537.36 (KHTML, like Gecko) Chrome/137.0.0.0 Safari/537.36" version="27.1.6">
  <diagram name="Page-1" id="a8zvNrl0k5wstkol7_ZN">
    <mxGraphModel dx="2528" dy="1011" grid="1" gridSize="10" guides="1" tooltips="1" connect="1" arrows="1" fold="1" page="1" pageScale="1" pageWidth="850" pageHeight="1100" math="0" shadow="0">
      <root>
        <mxCell id="0" />
        <mxCell id="1" parent="0" />
        <mxCell id="V_KrzRb_BU4SWPd25MiN-7" style="edgeStyle=orthogonalEdgeStyle;rounded=0;orthogonalLoop=1;jettySize=auto;html=1;entryX=0;entryY=0.5;entryDx=0;entryDy=0;" edge="1" parent="1" source="V_KrzRb_BU4SWPd25MiN-1" target="V_KrzRb_BU4SWPd25MiN-5">
          <mxGeometry relative="1" as="geometry" />
        </mxCell>
        <mxCell id="V_KrzRb_BU4SWPd25MiN-1" value="Silo for Client A" style="rounded=1;whiteSpace=wrap;html=1;" vertex="1" parent="1">
          <mxGeometry x="150" y="140" width="120" height="60" as="geometry" />
        </mxCell>
        <mxCell id="V_KrzRb_BU4SWPd25MiN-8" style="edgeStyle=orthogonalEdgeStyle;rounded=0;orthogonalLoop=1;jettySize=auto;html=1;entryX=0;entryY=0.5;entryDx=0;entryDy=0;" edge="1" parent="1" source="V_KrzRb_BU4SWPd25MiN-3" target="V_KrzRb_BU4SWPd25MiN-5">
          <mxGeometry relative="1" as="geometry">
            <mxPoint x="500" y="280" as="targetPoint" />
          </mxGeometry>
        </mxCell>
        <mxCell id="V_KrzRb_BU4SWPd25MiN-3" value="Silo for Client B" style="rounded=1;whiteSpace=wrap;html=1;" vertex="1" parent="1">
          <mxGeometry x="150" y="245" width="120" height="60" as="geometry" />
        </mxCell>
        <mxCell id="V_KrzRb_BU4SWPd25MiN-9" style="edgeStyle=orthogonalEdgeStyle;rounded=0;orthogonalLoop=1;jettySize=auto;html=1;entryX=0;entryY=0.5;entryDx=0;entryDy=0;" edge="1" parent="1" source="V_KrzRb_BU4SWPd25MiN-4" target="V_KrzRb_BU4SWPd25MiN-5">
          <mxGeometry relative="1" as="geometry" />
        </mxCell>
        <mxCell id="V_KrzRb_BU4SWPd25MiN-4" value="Silo for Client N" style="rounded=1;whiteSpace=wrap;html=1;" vertex="1" parent="1">
          <mxGeometry x="150" y="360" width="120" height="60" as="geometry" />
        </mxCell>
        <mxCell id="V_KrzRb_BU4SWPd25MiN-25" style="edgeStyle=orthogonalEdgeStyle;rounded=0;orthogonalLoop=1;jettySize=auto;html=1;entryX=0;entryY=0.5;entryDx=0;entryDy=0;" edge="1" parent="1" source="V_KrzRb_BU4SWPd25MiN-5" target="V_KrzRb_BU4SWPd25MiN-21">
          <mxGeometry relative="1" as="geometry" />
        </mxCell>
        <mxCell id="V_KrzRb_BU4SWPd25MiN-26" style="edgeStyle=orthogonalEdgeStyle;rounded=0;orthogonalLoop=1;jettySize=auto;html=1;entryX=1;entryY=0.5;entryDx=0;entryDy=0;" edge="1" parent="1" source="V_KrzRb_BU4SWPd25MiN-5" target="V_KrzRb_BU4SWPd25MiN-3">
          <mxGeometry relative="1" as="geometry" />
        </mxCell>
        <mxCell id="V_KrzRb_BU4SWPd25MiN-27" style="edgeStyle=orthogonalEdgeStyle;rounded=0;orthogonalLoop=1;jettySize=auto;html=1;entryX=1;entryY=0.5;entryDx=0;entryDy=0;" edge="1" parent="1" source="V_KrzRb_BU4SWPd25MiN-5" target="V_KrzRb_BU4SWPd25MiN-1">
          <mxGeometry relative="1" as="geometry" />
        </mxCell>
        <mxCell id="V_KrzRb_BU4SWPd25MiN-28" style="edgeStyle=orthogonalEdgeStyle;rounded=0;orthogonalLoop=1;jettySize=auto;html=1;entryX=1;entryY=0.5;entryDx=0;entryDy=0;" edge="1" parent="1" source="V_KrzRb_BU4SWPd25MiN-5" target="V_KrzRb_BU4SWPd25MiN-4">
          <mxGeometry relative="1" as="geometry" />
        </mxCell>
        <mxCell id="V_KrzRb_BU4SWPd25MiN-5" value="&lt;b&gt;Hub&lt;/b&gt;" style="rounded=1;whiteSpace=wrap;html=1;verticalAlign=top;" vertex="1" parent="1">
          <mxGeometry x="560" y="20" width="650" height="510" as="geometry" />
        </mxCell>
        <mxCell id="V_KrzRb_BU4SWPd25MiN-16" value="" style="group" vertex="1" connectable="0" parent="1">
          <mxGeometry x="580" y="120" width="155" height="320" as="geometry" />
        </mxCell>
        <mxCell id="V_KrzRb_BU4SWPd25MiN-15" value="&lt;font&gt;&lt;b&gt;Recon Manager&lt;/b&gt;&lt;/font&gt;" style="rounded=1;whiteSpace=wrap;html=1;verticalAlign=top;" vertex="1" parent="V_KrzRb_BU4SWPd25MiN-16">
          <mxGeometry width="155" height="320" as="geometry" />
        </mxCell>
        <mxCell id="V_KrzRb_BU4SWPd25MiN-12" value="Recon for Client A" style="rounded=1;whiteSpace=wrap;html=1;" vertex="1" parent="V_KrzRb_BU4SWPd25MiN-16">
          <mxGeometry x="17.5" y="50" width="120" height="60" as="geometry" />
        </mxCell>
        <mxCell id="V_KrzRb_BU4SWPd25MiN-13" value="Recon for Client B" style="rounded=1;whiteSpace=wrap;html=1;" vertex="1" parent="V_KrzRb_BU4SWPd25MiN-16">
          <mxGeometry x="17.5" y="140" width="120" height="60" as="geometry" />
        </mxCell>
        <mxCell id="V_KrzRb_BU4SWPd25MiN-14" value="Recon for Client C" style="rounded=1;whiteSpace=wrap;html=1;" vertex="1" parent="V_KrzRb_BU4SWPd25MiN-16">
          <mxGeometry x="17.5" y="220" width="120" height="60" as="geometry" />
        </mxCell>
        <mxCell id="V_KrzRb_BU4SWPd25MiN-18" value="" style="group" vertex="1" connectable="0" parent="1">
          <mxGeometry x="785" y="220" width="230" height="120" as="geometry" />
        </mxCell>
        <mxCell id="V_KrzRb_BU4SWPd25MiN-11" value="&lt;b&gt;Knowledge Graph&lt;/b&gt;" style="rounded=1;whiteSpace=wrap;html=1;verticalAlign=top;" vertex="1" parent="V_KrzRb_BU4SWPd25MiN-18">
          <mxGeometry width="230" height="120" as="geometry" />
        </mxCell>
        <mxCell id="V_KrzRb_BU4SWPd25MiN-17" value="STIX" style="rounded=1;whiteSpace=wrap;html=1;" vertex="1" parent="V_KrzRb_BU4SWPd25MiN-18">
          <mxGeometry x="55" y="40" width="120" height="60" as="geometry" />
        </mxCell>
        <mxCell id="V_KrzRb_BU4SWPd25MiN-22" value="" style="group" vertex="1" connectable="0" parent="1">
          <mxGeometry x="1330" y="200" width="360" height="150" as="geometry" />
        </mxCell>
        <mxCell id="V_KrzRb_BU4SWPd25MiN-21" value="Interfaces for Hunters" style="rounded=1;whiteSpace=wrap;html=1;verticalAlign=top;fontStyle=1" vertex="1" parent="V_KrzRb_BU4SWPd25MiN-22">
          <mxGeometry width="360" height="150" as="geometry" />
        </mxCell>
        <mxCell id="V_KrzRb_BU4SWPd25MiN-19" value="Terminal" style="rounded=1;whiteSpace=wrap;html=1;verticalAlign=top;fontStyle=1" vertex="1" parent="V_KrzRb_BU4SWPd25MiN-22">
          <mxGeometry x="20" y="70" width="120" height="30" as="geometry" />
        </mxCell>
        <mxCell id="V_KrzRb_BU4SWPd25MiN-20" value="Web" style="rounded=1;whiteSpace=wrap;html=1;verticalAlign=top;fontStyle=1" vertex="1" parent="V_KrzRb_BU4SWPd25MiN-22">
          <mxGeometry x="220" y="70" width="120" height="30" as="geometry" />
        </mxCell>
        <mxCell id="V_KrzRb_BU4SWPd25MiN-23" value="&lt;b&gt;Hub API&lt;/b&gt;" style="rounded=1;whiteSpace=wrap;html=1;" vertex="1" parent="1">
          <mxGeometry x="1070" y="80" width="120" height="400" as="geometry" />
        </mxCell>
        <mxCell id="V_KrzRb_BU4SWPd25MiN-24" style="edgeStyle=orthogonalEdgeStyle;rounded=0;orthogonalLoop=1;jettySize=auto;html=1;entryX=1;entryY=0.5;entryDx=0;entryDy=0;" edge="1" parent="1" source="V_KrzRb_BU4SWPd25MiN-21" target="V_KrzRb_BU4SWPd25MiN-5">
          <mxGeometry relative="1" as="geometry" />
        </mxCell>
        <mxCell id="V_KrzRb_BU4SWPd25MiN-34" value="" style="group" vertex="1" connectable="0" parent="1">
          <mxGeometry x="-370" y="180" width="190" height="190" as="geometry" />
        </mxCell>
        <mxCell id="V_KrzRb_BU4SWPd25MiN-31" value="Red Team" style="rounded=1;whiteSpace=wrap;html=1;verticalAlign=top;fontStyle=1" vertex="1" parent="V_KrzRb_BU4SWPd25MiN-34">
          <mxGeometry width="190" height="190" as="geometry" />
        </mxCell>
        <mxCell id="V_KrzRb_BU4SWPd25MiN-32" value="AtomicRedTeam" style="rounded=1;whiteSpace=wrap;html=1;" vertex="1" parent="V_KrzRb_BU4SWPd25MiN-34">
          <mxGeometry x="35" y="35" width="120" height="60" as="geometry" />
        </mxCell>
        <mxCell id="V_KrzRb_BU4SWPd25MiN-33" value="Caldera" style="rounded=1;whiteSpace=wrap;html=1;" vertex="1" parent="V_KrzRb_BU4SWPd25MiN-34">
          <mxGeometry x="35" y="110" width="120" height="60" as="geometry" />
        </mxCell>
        <mxCell id="V_KrzRb_BU4SWPd25MiN-35" style="edgeStyle=orthogonalEdgeStyle;rounded=0;orthogonalLoop=1;jettySize=auto;html=1;entryX=0;entryY=0.5;entryDx=0;entryDy=0;" edge="1" parent="1" source="V_KrzRb_BU4SWPd25MiN-31" target="V_KrzRb_BU4SWPd25MiN-1">
          <mxGeometry relative="1" as="geometry" />
        </mxCell>
        <mxCell id="V_KrzRb_BU4SWPd25MiN-37" style="edgeStyle=orthogonalEdgeStyle;rounded=0;orthogonalLoop=1;jettySize=auto;html=1;entryX=0;entryY=0.5;entryDx=0;entryDy=0;" edge="1" parent="1" source="V_KrzRb_BU4SWPd25MiN-31" target="V_KrzRb_BU4SWPd25MiN-3">
          <mxGeometry relative="1" as="geometry" />
        </mxCell>
        <mxCell id="V_KrzRb_BU4SWPd25MiN-38" style="edgeStyle=orthogonalEdgeStyle;rounded=0;orthogonalLoop=1;jettySize=auto;html=1;entryX=0;entryY=0.5;entryDx=0;entryDy=0;" edge="1" parent="1" source="V_KrzRb_BU4SWPd25MiN-31" target="V_KrzRb_BU4SWPd25MiN-4">
          <mxGeometry relative="1" as="geometry" />
        </mxCell>
      </root>
    </mxGraphModel>
  </diagram>
</mxfile>
